<?xml version="1.0" standalone="no"?>
<!DOCTYPE svg PUBLIC "-//W3C//DTD SVG 1.1//EN" "http://www.w3.org/Graphics/SVG/1.1/DTD/svg11.dtd" >
<svg xmlns="http://www.w3.org/2000/svg" xmlns:xlink="http://www.w3.org/1999/xlink" version="1.1">
<metadata>
Created by FontForge 20161003 at Mon Aug 27 05:39:10 2018
 By www-data
Copyright \(c\) 2016 by Lauren Elizabeth Lee. All rights reserved.
</metadata>
<defs>
<font id="Somatic-Rounded" horiz-adv-x="230" >
  <font-face 
    font-family="Somatic Rounded"
    font-weight="400"
    font-stretch="normal"
    units-per-em="1000"
    panose-1="0 0 5 0 0 0 0 0 0 0"
    ascent="800"
    descent="-200"
    x-height="482"
    cap-height="760"
    bbox="-150.175 -265 873.393 800"
    underline-thickness="50"
    underline-position="-100"
    unicode-range="U+0020-007A"
  />
<missing-glyph horiz-adv-x="500" 
d="M410 800v-1000h-317v1000h317zM333 733h-165v-33h65v-37h-66v-33h166v33h-66v37h66v33zM267 604h-100v-104h166v34h-66v70zM233 570v-36h-33v36h33zM333 473h-166v-33h66v-37h-66v-33h100v70h66v33zM333 413h-33v-66h-133v-34h166v100zM333 291h-100v-56h34v23h33v-47
h-100v80h-33v-113h166v113zM333 118h-166v-113h166v113zM300 85v-47h-100v47h100zM333 -18h-166v-33h70l-70 -47v-33h166v33h-102l70 47h32v33z" />
    <glyph glyph-name="f_i.liga" unicode="fi" horiz-adv-x="563" 
d="M362 730c27 -20 29 -63 12 -85c-18 -23 -58 -32 -85 -12c-13 10 -29 15 -46 15c-42 0 -77 -34 -77 -76c0 -5 0 -10 -1 -14c1 -5 1 -10 1 -15v-96h95c34 0 61 -27 61 -61c0 -33 -27 -61 -61 -61h-95v-253c0 -34 -27 -61 -60 -61c-34 0 -61 27 -61 61v471v29
c0 109 89 198 198 198c44 0 85 -14 119 -40zM458 627c33 0 60 -27 60 -61v-3c0 -34 -27 -61 -60 -61c-34 0 -61 27 -61 61v3c0 34 27 61 61 61zM458 446c33 0 60 -27 60 -60v-314c0 -34 -27 -61 -60 -61c-34 0 -61 27 -61 61v314c0 33 27 60 61 60z" />
    <glyph glyph-name="f_t.liga" unicode="ft" horiz-adv-x="689" 
d="M372 713c24 -23 26 -61 3 -85c-23 -25 -61 -26 -86 -3c-14 13 -32 20 -52 20c-42 0 -76 -34 -76 -76c0 -13 1 -88 0 -94h85c33 0 60 -27 60 -60c0 -34 -27 -61 -60 -61h-85v-282c0 -33 -27 -60 -60 -60c-34 0 -61 27 -61 60v2v238v257c0 109 89 197 197 197
c51 0 98 -19 135 -53zM579 128c33 0 60 -27 60 -60c0 -34 -27 -61 -60 -61c-9 0 -18 1 -27 2c-33 4 -66 19 -88 44c-21 24 -34 60 -34 92v208h-39c-34 0 -61 27 -61 60s27 60 61 60h39v227c0 34 27 61 60 61s60 -27 60 -61v-227h34c33 0 60 -27 60 -60s-27 -60 -60 -60h-34
v-195c2 -8 0 -19 7 -25c6 -5 15 -5 22 -5z" />
    <glyph glyph-name="t_t.liga" unicode="tt" horiz-adv-x="647" 
d="M557 123c33 0 60 -27 60 -60c0 -34 -27 -60 -60 -60c-9 0 -17 0 -26 1c-33 5 -65 19 -88 45c-20 23 -34 59 -34 90v252h-147h-1h-1h-33v-238c2 -8 0 -20 7 -26c5 -5 14 -4 21 -4c33 0 60 -27 60 -60c0 -34 -27 -60 -60 -60c-9 0 -17 0 -26 1c-33 5 -65 19 -88 45
c-20 23 -34 59 -34 90v252h-47c-33 0 -60 27 -60 60s27 60 60 60h47v191c0 33 27 60 60 60s60 -27 60 -60v-191h33h1h1h147v191c0 33 27 60 60 60s60 -27 60 -60v-191h33c33 0 60 -27 60 -60s-27 -60 -60 -60h-33v-238c2 -8 0 -20 7 -26c5 -5 14 -4 21 -4z" />
    <glyph glyph-name=".notdef" horiz-adv-x="500" 
d="M410 800v-1000h-317v1000h317zM333 733h-165v-33h65v-37h-66v-33h166v33h-66v37h66v33zM267 604h-100v-104h166v34h-66v70zM233 570v-36h-33v36h33zM333 473h-166v-33h66v-37h-66v-33h100v70h66v33zM333 413h-33v-66h-133v-34h166v100zM333 291h-100v-56h34v23h33v-47
h-100v80h-33v-113h166v113zM333 118h-166v-113h166v113zM300 85v-47h-100v47h100zM333 -18h-166v-33h70l-70 -47v-33h166v33h-102l70 47h32v33z" />
    <glyph glyph-name="A" unicode="A" horiz-adv-x="812" 
d="M766 83c15 -30 3 -66 -27 -80c-29 -15 -65 -3 -80 26l-78 156h-1h-342c-3 0 -5 0 -7 1l-72 -155c-10 -22 -32 -35 -54 -35c-9 0 -17 2 -25 6c-30 14 -43 49 -29 79l292 631c10 21 30 34 53 35h1c23 0 43 -13 54 -33zM286 305h235l-122 244z" />
    <glyph glyph-name="B" unicode="B" horiz-adv-x="587" 
d="M438 412c65 -39 109 -108 109 -185c0 -124 -100 -229 -219 -229h-227v6c-31 2 -56 28 -56 59v631c0 33 27 59 59 59v4h160c123 0 219 -93 219 -213c0 -49 -17 -95 -45 -132zM365 544c0 54 -43 95 -101 95h-101v-195h114c49 7 88 49 88 100zM328 116c53 0 101 53 101 111
c0 53 -51 99 -109 99h-37h-19h-101v-210h165z" />
    <glyph glyph-name="C" unicode="C" horiz-adv-x="742" 
d="M424 0c96 0 188 37 259 102c24 23 25 61 3 85c-23 24 -61 26 -85 3c-48 -45 -111 -69 -177 -69c-143 0 -259 116 -259 259s116 259 259 259c64 0 126 -23 174 -66c24 -22 62 -20 84 4c23 25 21 63 -4 85c-70 63 -160 97 -254 97c-209 0 -379 -170 -379 -379
s170 -380 379 -380z" />
    <glyph glyph-name="D" unicode="D" horiz-adv-x="682" 
d="M262 753c209 0 380 -170 380 -379s-171 -380 -380 -380h-2l-157 6c-33 1 -58 28 -58 61v633c0 33 26 59 60 59h157zM263 115c143 0 259 116 259 259s-118 259 -260 259h-97v-515z" />
    <glyph glyph-name="E" unicode="E" horiz-adv-x="525" 
d="M450 317h-286v-198h286c33 0 60 -27 60 -60s-27 -59 -60 -59h-346c-33 0 -59 26 -59 59v640c0 33 26 60 59 60h346c33 0 60 -27 60 -60s-27 -60 -60 -60h-286v-203h286c33 0 60 -26 60 -60c0 -33 -27 -59 -60 -59z" />
    <glyph glyph-name="F" unicode="F" horiz-adv-x="525" 
d="M450 442c33 0 60 -26 60 -60c0 -33 -27 -59 -60 -59h-286v-258c0 -33 -27 -59 -60 -59s-59 26 -59 59v640c0 33 26 60 59 60h346c33 0 60 -27 60 -60s-27 -60 -60 -60h-286v-203h286z" />
    <glyph glyph-name="G" unicode="G" horiz-adv-x="764" 
d="M738 371c1 -3 1 -7 1 -11c0 -208 -155 -359 -369 -359c-208 0 -370 167 -370 380c0 209 170 379 380 379c97 0 189 -37 260 -103c24 -23 25 -62 2 -86s-61 -26 -85 -3c-48 46 -111 71 -177 71c-143 0 -258 -116 -258 -258c0 -145 109 -259 248 -259c129 0 224 78 244 193
h-131c-34 0 -61 27 -61 61c0 33 27 60 61 60h194c34 0 61 -27 61 -60v-5z" />
    <glyph glyph-name="H" unicode="H" horiz-adv-x="703" 
d="M597 783c33 0 61 -27 61 -61v-637c0 -34 -28 -61 -61 -61c-34 0 -61 27 -61 61v253h-369v-253c0 -34 -28 -61 -61 -61c-34 0 -61 27 -61 61v637c0 34 27 61 61 61c33 0 61 -27 61 -61v-263h369v263c0 34 27 61 61 61z" />
    <glyph glyph-name="I" unicode="I" horiz-adv-x="271" 
d="M135 1c34 0 61 27 61 61v637c0 34 -27 61 -61 61c-33 0 -60 -27 -60 -61v-637c0 -34 27 -61 60 -61z" />
    <glyph glyph-name="J" unicode="J" horiz-adv-x="517" 
d="M259 -3c117 0 213 96 213 213v483c0 35 -28 63 -63 63c-34 0 -63 -28 -63 -63v-483c0 -48 -39 -88 -87 -88c-27 0 -51 12 -68 32c-13 16 -20 36 -20 56c0 35 -28 63 -63 63s-63 -28 -63 -63c0 -50 17 -98 49 -136c41 -49 101 -77 165 -77z" />
    <glyph glyph-name="K" unicode="K" horiz-adv-x="583" 
d="M533 104c25 -22 27 -60 5 -84c-12 -14 -28 -20 -45 -20c-14 0 -28 5 -40 15l-285 268c-1 -1 -2 -2 -4 -3v-221c0 -33 -26 -59 -59 -59c-34 0 -60 26 -60 59v640c0 33 26 60 60 60c33 0 59 -27 59 -60v-248l262 274c23 24 61 25 84 2c24 -23 25 -61 2 -85l-262 -273z" />
    <glyph glyph-name="L" unicode="L" horiz-adv-x="542" 
d="M104 -3h1l353 4c33 0 59 27 59 60c-1 32 -27 58 -59 58h-1l-294 -3v581c0 33 -26 59 -59 59c-32 0 -59 -26 -59 -59v-641c0 -16 7 -31 18 -42s26 -17 41 -17z" />
    <glyph glyph-name="M" unicode="M" horiz-adv-x="738" 
d="M697 699c0 -1 1 -1 1 -2v-637c0 -34 -28 -61 -61 -61c-34 0 -61 27 -61 61v451l-156 -214c-11 -15 -29 -25 -49 -25c-19 0 -37 10 -49 25l-156 214v-451c0 -34 -27 -61 -61 -61c-33 0 -60 27 -60 61v637v2v3v3c0 1 1 2 1 3v3c1 1 1 2 1 3s1 2 1 3s1 1 1 2s1 2 1 3
c1 1 1 2 1 3l2 2c0 1 1 2 1 3l2 2c0 1 1 2 2 3c0 1 1 1 1 2l3 2c0 1 1 2 2 2c0 1 1 2 2 2l2 2c1 1 1 1 2 1c0 1 0 1 1 1c0 1 1 1 2 2c1 0 2 1 3 1c1 1 2 1 2 2c1 0 2 0 3 1c1 0 2 1 3 1s2 1 3 1s1 0 2 1c1 0 2 0 4 1h2c1 0 2 0 4 1h2h4h2h4s1 0 2 -1h3c1 0 2 0 3 -1h3
c1 -1 2 -1 3 -1c1 -1 2 -1 3 -1c1 -1 1 -1 2 -1l3 -2c1 0 2 0 2 -1c1 0 2 -1 3 -2c1 0 2 -1 2 -1l3 -2l2 -2c1 0 2 -1 3 -2c0 -1 1 -1 1 -2c1 -1 2 -1 2 -2c1 -1 2 -2 2 -3c1 0 1 0 2 -1l216 -297l217 297c0 1 0 1 1 1c0 1 1 2 2 3c0 1 1 1 2 2c0 1 1 1 2 2s1 2 2 2l2 2
c1 1 2 1 3 2c1 0 1 1 2 1c1 1 2 2 3 2c1 1 1 1 2 1l3 2c1 0 2 0 3 1c1 0 1 0 2 1c1 0 2 0 3 1h3c1 1 2 1 3 1h3c1 1 2 1 3 1h3h2h1h4h2c1 -1 2 -1 3 -1h3c1 -1 2 -1 3 -1c1 -1 2 -1 2 -1c2 0 3 -1 4 -1c0 0 1 -1 2 -1c1 -1 2 -1 3 -1l3 -2s1 -1 2 -1l3 -2l1 -1l1 -1
c1 0 2 -1 2 -2c1 0 2 -1 3 -2l2 -2c0 -1 1 -1 2 -2c0 -1 1 -1 1 -2c1 -1 2 -2 2 -3l2 -2c0 -1 1 -2 2 -3c0 -1 0 -1 1 -2c0 -1 1 -2 1 -3c1 -1 1 -2 1 -3c1 -1 1 -1 1 -2c1 -1 1 -2 1 -3s1 -2 1 -3s0 -2 1 -3v-3v-3v-3z" />
    <glyph glyph-name="N" unicode="N" horiz-adv-x="703" 
d="M658 697v-637c0 -1 -1 -1 -1 -1v-4v-2v-3c-1 -1 -1 -2 -1 -3s0 -2 -1 -3v-3c-1 -1 -1 -2 -1 -2l-2 -3c0 -1 0 -2 -1 -3c0 -1 -1 -2 -1 -3l-2 -3s-1 -1 -1 -2c-1 -1 -2 -1 -2 -2c-1 -1 -1 -2 -2 -2c0 -1 -1 -2 -2 -3c-1 0 -1 -1 -2 -2c-1 0 -1 -1 -2 -2c-1 0 -2 -1 -2 -2
h-1c0 -1 -1 -1 -1 -1c-2 -2 -5 -3 -8 -5c-3 -1 -5 -3 -8 -4h-1c-3 -1 -6 -2 -9 -2h-2c-2 -1 -5 -1 -8 -1v0h-7l-1 1h-5c-1 1 -1 1 -2 1c-2 0 -3 1 -5 1c0 0 -1 1 -2 1s-2 1 -3 2c-1 0 -2 0 -3 1c-1 0 -2 1 -3 2c-1 0 -2 0 -2 1c-2 1 -3 1 -4 2c0 1 -1 1 -2 2s-3 2 -4 4
c-1 0 -1 1 -1 1c-2 1 -3 3 -4 4v1l-382 496v-459c0 -34 -28 -61 -61 -61c-34 0 -61 27 -61 61v637v1v4c1 0 1 1 1 2v3c0 1 0 2 1 3v3c1 1 1 2 1 3s1 2 1 2c0 1 1 2 1 3l2 3c0 1 0 2 1 3c0 1 1 2 2 3c0 0 0 1 1 2l2 2c0 1 1 2 1 2l3 3l2 2l2 2l2 2h1c0 1 1 1 1 1c1 1 2 2 3 2
c1 1 2 1 2 2c1 0 2 1 3 1c1 1 2 1 3 1l3 2c1 0 1 0 2 1c1 0 2 0 3 1h3c1 1 2 1 3 1h3c1 1 2 1 3 1h3h2h1h3h3c1 -1 2 -1 3 -1h3c1 -1 2 -1 2 -1l4 -1s1 -1 2 -1s2 -1 3 -1s2 -1 3 -1l2 -2c1 0 2 -1 3 -1c1 -1 2 -1 2 -2c1 0 2 -1 3 -2c1 0 1 -1 2 -1l2 -2l2 -2l2 -2
c1 -1 2 -2 2 -3c1 0 1 0 1 -1l382 -496v459c0 34 27 61 61 61c33 0 61 -27 61 -61z" />
    <glyph glyph-name="O" unicode="O" horiz-adv-x="849" 
d="M425 1c209 0 379 170 379 379c0 210 -170 380 -379 380c-210 0 -380 -170 -380 -379c0 -210 170 -380 380 -380zM425 639c142 0 258 -116 258 -258c0 -143 -116 -259 -258 -259c-143 0 -259 116 -259 259c0 142 116 258 259 258z" />
    <glyph glyph-name="P" unicode="P" horiz-adv-x="574" 
d="M329 761c119 0 220 -105 220 -230c0 -118 -104 -219 -228 -219h-158v-251c0 -33 -26 -59 -59 -59s-59 26 -59 59v635c0 31 25 57 56 59v6h228zM321 431c58 0 109 47 109 100c0 58 -48 111 -101 111h-166v-211h158z" />
    <glyph glyph-name="Q" unicode="Q" horiz-adv-x="839" 
d="M718 152l58 -57c23 -23 24 -61 0 -85c-11 -12 -27 -18 -42 -18c-16 0 -31 6 -42 18l-60 59c-61 -42 -134 -67 -213 -67c-206 0 -374 168 -374 375c0 206 168 374 374 374c207 0 375 -168 375 -374c0 -85 -28 -162 -76 -225zM419 122c46 0 88 12 125 33l-72 72
c-23 23 -23 61 0 84c23 24 61 24 85 1l75 -75c26 40 42 88 42 140c0 140 -114 255 -255 255c-140 0 -255 -115 -255 -255c0 -141 115 -255 255 -255z" />
    <glyph glyph-name="R" unicode="R" horiz-adv-x="594" 
d="M542 87c15 -29 4 -65 -25 -80c-9 -5 -18 -7 -28 -7c-21 0 -42 11 -52 32l-147 279h-127v-251c0 -33 -26 -59 -59 -59s-59 26 -59 59v634c0 31 25 57 56 59v6h228c119 0 219 -105 219 -230c0 -87 -56 -164 -135 -198zM163 640v-211h158c58 0 109 47 109 100
c0 59 -48 111 -101 111h-166z" />
    <glyph glyph-name="S" unicode="S" horiz-adv-x="616" 
d="M397 423c105 -23 180 -119 174 -221c-7 -117 -113 -185 -208 -199c-16 -2 -33 -3 -49 -3c-98 0 -195 41 -255 112c-21 25 -18 62 7 84c25 21 62 18 83 -7c44 -51 123 -79 197 -68c49 7 103 37 106 88c3 45 -32 87 -81 98c-20 5 -43 6 -66 7c-52 3 -110 6 -164 43
c-73 50 -109 141 -87 221c24 87 104 154 199 168c92 13 190 -13 261 -68c25 -20 30 -58 10 -84c-20 -25 -58 -30 -84 -10c-45 36 -110 53 -171 44c-47 -7 -89 -40 -100 -82c-10 -35 12 -72 40 -91c26 -18 61 -20 102 -22c28 -2 56 -3 86 -10z" />
    <glyph glyph-name="T" unicode="T" horiz-adv-x="634" 
d="M549 757c33 0 60 -27 60 -60c0 -34 -27 -61 -60 -61h-172v-577c0 -34 -27 -61 -60 -61c-34 0 -61 27 -61 61v577h-171c-33 0 -60 27 -60 61c0 33 27 60 60 60h464z" />
    <glyph glyph-name="U" unicode="U" horiz-adv-x="657" 
d="M328 -2c138 0 284 93 284 264v434c0 34 -27 61 -61 61s-62 -27 -62 -61v-434c0 -92 -81 -140 -161 -140c-79 0 -160 48 -160 140v434c0 34 -28 61 -62 61s-61 -27 -61 -61v-434c0 -171 146 -264 283 -264z" />
    <glyph glyph-name="V" unicode="V" horiz-adv-x="726" 
d="M660 744c30 -13 44 -48 31 -79l-273 -630v-1c-1 -2 -2 -5 -4 -7v-1c-1 -2 -3 -4 -5 -6c0 0 0 -1 -1 -1c-1 -2 -3 -4 -5 -5v-1c-2 -2 -4 -3 -6 -4c-1 -1 -2 -1 -2 -2c-2 -1 -4 -2 -6 -2c0 -1 -1 -1 -1 -1l-1 -1c-2 -1 -4 -1 -6 -2h-2c-2 -1 -4 -1 -6 -2h-2
c-3 0 -5 -1 -8 -1v0l-7 1h-2c-2 1 -5 1 -7 2h-1c-2 1 -4 1 -7 2v1c-1 0 -1 0 -2 1c-2 0 -4 1 -5 2l-2 2c-2 1 -4 2 -6 4l-1 1l-5 5c0 0 0 1 -1 1c-2 2 -3 4 -4 6l-1 1c-1 2 -2 5 -3 7c-1 0 -1 0 -1 1l-273 630c-13 31 1 66 32 79c30 13 65 -1 79 -31l217 -503l218 503
c13 30 48 44 79 31z" />
    <glyph glyph-name="W" unicode="W" horiz-adv-x="918" 
d="M826 749c33 -7 53 -40 46 -72l-141 -633c-1 -3 -2 -7 -3 -9v-1c-1 -3 -3 -5 -4 -8l-1 -1c-1 -3 -3 -5 -5 -7l-1 -1c-2 -2 -4 -4 -7 -6c0 -1 0 -1 -1 -1c-2 -2 -4 -3 -7 -5h-1v-1l-8 -3h-1l-9 -3h-1c-3 0 -6 -1 -9 -1h-1c-2 0 -4 0 -6 1h-1c-1 0 -3 0 -5 1h-1h-2
c-1 1 -2 1 -3 1s-2 1 -3 1c0 1 -1 1 -2 1l-3 2c-1 0 -2 0 -2 1c-1 0 -2 1 -3 1c-1 1 -2 1 -2 2c-1 0 -2 1 -3 2c-1 0 -1 1 -2 1l-2 2c-1 1 -2 2 -3 2c0 1 -1 2 -1 3c-1 0 -2 1 -2 2c-1 1 -2 1 -2 2l-2 3c0 1 -1 2 -2 3c0 0 0 1 -1 1l-159 298l-150 -297c-1 0 -1 0 -1 -1
l-3 -5c-1 -1 -1 -1 -1 -2c-2 -2 -3 -4 -5 -5c0 -1 -1 -1 -1 -1c-1 -2 -3 -3 -5 -5c0 0 -1 0 -1 -1l-6 -4v0l-7 -4h-1c-2 -1 -4 -2 -6 -2c0 0 -1 0 -2 -1h-1c-1 0 -3 -1 -4 -1h-3c-2 -1 -5 -1 -7 -1c-3 0 -6 1 -9 1h-2c-3 1 -5 2 -8 2c0 1 -1 1 -1 1l-7 3h-1c-1 1 -1 1 -2 1
c-2 2 -5 3 -7 5c-3 2 -5 4 -7 6c0 1 -1 1 -1 1c-2 3 -4 5 -5 7c-1 1 -1 1 -1 2c-2 2 -3 5 -4 8h-1l-3 9v1l-150 632c-8 32 12 65 44 73c33 7 65 -13 73 -45l113 -473l128 254c11 20 31 32 54 33c22 0 43 -13 53 -32l137 -256l105 473c7 33 40 53 72 46z" />
    <glyph glyph-name="X" unicode="X" horiz-adv-x="788" 
d="M473 365l248 -273c22 -24 20 -62 -4 -84c-12 -10 -26 -15 -41 -15c-16 0 -32 6 -44 19l-239 264l-237 -260c-11 -13 -28 -20 -44 -20c-14 0 -28 5 -40 15c-24 23 -26 60 -4 85l244 269l-251 277c-23 24 -21 62 4 84c24 22 62 21 84 -4l244 -269l247 272c22 25 60 27 84 5
c24 -23 26 -60 4 -85z" />
    <glyph glyph-name="Y" unicode="Y" horiz-adv-x="619" 
d="M646 728c26 -21 30 -58 10 -84l-252 -318v-269c0 -33 -26 -59 -59 -59s-60 26 -60 59v269l-247 327c-20 26 -15 64 11 84c27 20 64 14 84 -12l213 -281l216 274c20 26 58 30 84 10z" />
    <glyph glyph-name="Z" unicode="Z" horiz-adv-x="741" 
d="M625 0c33 0 60 26 60 60c0 32 -27 59 -60 59h-385l442 533c15 17 18 42 8 63c-10 22 -31 35 -55 35h-513c-32 0 -59 -27 -59 -60s27 -60 59 -60h387l-442 -533c-15 -17 -19 -42 -9 -63s32 -34 55 -34h512z" />
    <glyph glyph-name="a" unicode="a" horiz-adv-x="580" 
d="M468 500c33 0 58 -26 58 -57v-383c0 -31 -25 -57 -58 -57s-53 26 -53 57v12c-43 -37 -93 -59 -153 -59c-134 0 -242 108 -242 241s108 242 242 242c60 0 110 -23 153 -58v5c0 31 20 57 53 57zM262 130c68 0 125 55 125 124s-57 125 -125 125c-69 0 -126 -56 -126 -125
s57 -124 126 -124z" />
    <glyph glyph-name="b" unicode="b" horiz-adv-x="575" 
d="M297 507c139 0 253 -113 253 -253s-114 -253 -253 -253c-53 0 -103 16 -143 44c-8 -24 -31 -42 -58 -42c-34 0 -61 27 -61 60v636c0 33 27 61 61 61c33 0 60 -28 60 -61v-234c41 26 89 42 141 42zM297 122c72 0 132 59 132 132s-60 132 -132 132
c-73 0 -132 -59 -132 -132s59 -132 132 -132z" />
    <glyph glyph-name="c" unicode="c" horiz-adv-x="519" 
d="M291 3h4c62 1 121 25 166 67c24 23 26 61 3 85c-22 24 -61 26 -84 3c-24 -22 -55 -35 -88 -35c-34 -1 -67 12 -92 37c-25 23 -40 57 -40 91c-1 35 13 68 36 93c25 25 57 40 92 40s68 -13 93 -37c24 -23 62 -22 85 2c23 23 22 62 -2 84c-48 47 -111 72 -178 71
c-67 -2 -129 -29 -175 -77c-48 -48 -72 -112 -71 -178c2 -67 29 -129 77 -176c47 -45 108 -70 174 -70z" />
    <glyph glyph-name="d" unicode="d" horiz-adv-x="560" 
d="M464 759c34 0 61 -28 61 -61v-636c0 -33 -27 -60 -61 -60c-27 0 -50 17 -58 42c-40 -28 -90 -44 -143 -44c-139 0 -253 113 -253 253c0 139 114 253 253 253c52 0 100 -16 141 -42v234c0 33 27 61 60 61zM263 121c73 0 132 59 132 132s-59 132 -132 132
s-132 -59 -132 -132s59 -132 132 -132z" />
    <glyph glyph-name="e" unicode="e" horiz-adv-x="518" 
d="M495 253c-8 -19 -25 -36 -49 -36h-308c14 -57 65 -101 127 -101c32 0 79 13 105 38c24 23 62 23 85 -1c24 -23 23 -62 -1 -85c-55 -53 -132 -71 -189 -71c-139 0 -250 112 -250 251c0 137 111 251 250 251c15 0 29 -1 44 -4c68 -13 126 -55 162 -115
c16 -28 34 -65 32 -98c0 -9 -4 -19 -8 -29zM265 378c-46 0 -86 -23 -110 -60h212c-20 38 -57 60 -102 60z" />
    <glyph glyph-name="f" unicode="f" horiz-adv-x="343" 
d="M374 711c24 -23 25 -62 3 -86c-23 -24 -61 -25 -86 -3c-14 13 -32 21 -52 21c-42 0 -76 -35 -76 -78v-124h95c33 0 61 -27 61 -60c0 -34 -28 -61 -61 -61h-95v-254c0 -33 -28 -61 -62 -61c-33 0 -61 28 -61 61v2v239v258c0 110 90 199 199 199c50 0 98 -19 135 -53z" />
    <glyph glyph-name="g" unicode="g" horiz-adv-x="592" 
d="M474 507c34 0 61 -28 61 -61v-453c0 -142 -115 -258 -257 -258c-75 0 -146 32 -195 89c-21 26 -19 65 7 86c25 23 64 20 86 -6c25 -30 63 -46 102 -46c75 0 135 60 135 135v44c-37 -22 -81 -35 -127 -35c-138 0 -251 112 -251 250s113 250 251 250c47 0 92 -13 130 -37
c9 24 31 42 58 42zM286 124c70 0 127 58 127 128c0 71 -57 128 -127 128c-71 0 -128 -57 -128 -128c0 -70 57 -128 128 -128z" />
    <glyph glyph-name="h" unicode="h" horiz-adv-x="534" 
d="M489 276v-219c0 -33 -27 -60 -60 -60c-34 0 -61 27 -61 60v219c0 57 -46 103 -103 103s-103 -46 -103 -103v-219c0 -33 -27 -60 -61 -60c-33 0 -61 27 -61 60v638c0 33 28 61 61 61c34 0 61 -28 61 -61v-220c31 16 66 25 103 25c124 0 224 -100 224 -224z" />
    <glyph glyph-name="i" unicode="i" horiz-adv-x="224" 
d="M113 587c33 0 61 28 61 61v5c0 35 -28 62 -61 62c-35 0 -63 -27 -63 -62v-5c0 -33 28 -61 63 -61zM113 0c33 0 61 28 61 62v386c0 34 -28 61 -61 61c-35 0 -63 -27 -63 -61v-386c0 -34 28 -62 63 -62z" />
    <glyph glyph-name="j" unicode="j" horiz-adv-x="228" 
d="M120 587c33 0 61 28 61 61v5c0 35 -28 62 -61 62c-35 0 -63 -27 -63 -62v-5c0 -33 28 -61 63 -61zM183 449v-436v-4v-4c0 -103 -83 -188 -186 -188c-49 0 -94 19 -128 51c-24 22 -26 59 -3 82c21 22 59 23 81 2c13 -13 31 -19 50 -19c46 0 72 39 72 83v232v201
c0 31 25 57 58 57c30 0 56 -26 56 -57z" />
    <glyph glyph-name="k" unicode="k" horiz-adv-x="468" 
d="M449 108c24 -23 26 -61 3 -87c-12 -12 -29 -19 -45 -19c-15 0 -29 5 -41 16l-204 188v-149c0 -34 -27 -61 -61 -61s-61 27 -61 61v637c0 34 27 61 61 61s61 -27 61 -61v-338l197 136c28 19 66 13 85 -15c20 -27 13 -65 -14 -85l-167 -113z" />
    <glyph glyph-name="l" unicode="l" horiz-adv-x="278" 
d="M192 121c34 0 61 -27 61 -60c0 -34 -27 -61 -61 -61c-42 0 -83 21 -109 54c-30 39 -28 83 -28 130v299v216c0 33 27 60 60 60c34 0 61 -27 61 -60v-543c0 -3 -1 -6 -1 -9s1 -6 1 -9c0 -9 7 -17 16 -17z" />
    <glyph glyph-name="m" unicode="m" horiz-adv-x="755" 
d="M710 309v-3v-4v-242c0 -34 -26 -60 -59 -60s-61 26 -61 60v242v4v3c0 39 -35 69 -76 69c-44 0 -79 -30 -79 -69v-3v-4v-242c0 -34 -27 -60 -59 -60c-34 0 -60 26 -60 60v242v4v3c0 39 -35 69 -78 69s-78 -30 -78 -69v-252c0 -32 -26 -59 -60 -59c-32 0 -60 27 -60 59v382
c0 33 28 61 60 61c19 0 37 -10 46 -24c28 14 59 22 92 22c53 0 101 -20 138 -54c35 34 83 54 138 54c107 0 196 -85 196 -189z" />
    <glyph glyph-name="n" unicode="n" horiz-adv-x="547" 
d="M278 499c129 0 234 -111 234 -248v-189c0 -33 -26 -60 -59 -60c-34 0 -60 27 -60 60v189c0 71 -52 128 -115 128c-78 0 -118 -78 -118 -147v-170c0 -33 -27 -60 -60 -60s-60 27 -60 60v382c0 33 27 60 60 60c26 0 48 -17 56 -41c36 23 77 36 122 36z" />
    <glyph glyph-name="o" unicode="o" horiz-adv-x="563" 
d="M281 2c138 0 251 112 252 250c-1 139 -114 252 -252 252s-251 -113 -251 -251c0 -139 113 -251 251 -251zM281 381c71 0 128 -57 128 -128s-57 -128 -128 -128s-128 57 -128 128s57 128 128 128z" />
    <glyph glyph-name="p" unicode="p" horiz-adv-x="585" 
d="M307 502c139 0 253 -113 253 -253s-114 -253 -253 -253c-52 0 -100 16 -141 42v-234c0 -34 -27 -61 -60 -61c-34 0 -61 27 -61 61v636c0 33 27 60 61 60c27 0 50 -18 58 -42c40 28 90 44 143 44zM307 117c72 0 132 59 132 132s-60 132 -132 132c-73 0 -132 -59 -132 -132
s59 -132 132 -132z" />
    <glyph glyph-name="q" unicode="q" horiz-adv-x="600" 
d="M549 -137c33 0 60 -26 60 -59s-27 -60 -60 -60c-78 0 -138 66 -138 143v158c-40 -26 -87 -42 -138 -42c-138 0 -250 112 -250 250s112 250 250 250c52 0 101 -17 141 -44c7 24 30 42 57 42c33 0 60 -27 60 -60v-544v-3c1 -5 1 -9 1 -14c0 -9 8 -17 17 -17zM273 123
c71 0 130 58 130 130s-59 130 -130 130c-72 0 -130 -58 -130 -130s58 -130 130 -130z" />
    <glyph glyph-name="r" unicode="r" horiz-adv-x="468" 
d="M449 432c24 -22 26 -60 3 -84s-60 -26 -85 -3c-22 21 -52 33 -83 33c-68 0 -124 -58 -124 -129v-189c0 -33 -27 -60 -60 -60s-60 27 -60 60v383c0 33 27 59 60 59c27 0 49 -17 57 -41c37 23 81 37 127 37c62 0 120 -24 165 -66z" />
    <glyph glyph-name="s" unicode="s" horiz-adv-x="427" 
d="M219 -2c38 0 75 8 109 30c43 29 69 77 69 128c0 58 -36 112 -91 137c-33 15 -66 15 -92 16c-16 0 -31 0 -41 3c-8 3 -17 16 -18 21c-4 43 52 45 82 40c18 -3 28 -10 42 -20c8 -5 17 -8 26 -9c19 -2 38 5 51 19c22 24 20 62 -4 84c-25 23 -55 37 -95 44
c-53 9 -126 2 -176 -44c-23 -22 -50 -61 -45 -124c4 -52 46 -106 98 -123c28 -10 55 -11 79 -11c18 0 34 0 43 -5c10 -4 22 -14 22 -28c0 -11 -6 -22 -16 -28c-38 -25 -105 -2 -123 15c-24 22 -62 21 -84 -4c-23 -24 -21 -62 3 -84c33 -31 97 -57 161 -57z" />
    <glyph glyph-name="t" unicode="t" horiz-adv-x="337" 
d="M247 123c33 0 60 -27 60 -60c0 -34 -27 -60 -60 -60c-9 0 -17 0 -26 1c-33 5 -65 19 -88 45c-20 23 -34 59 -34 90v252h-43c-33 0 -60 27 -60 60s27 60 60 60h43v191c0 33 27 60 60 60s60 -27 60 -60v-191h33c33 0 60 -27 60 -60s-27 -60 -60 -60h-33v-238
c2 -8 0 -20 7 -26c5 -5 14 -4 21 -4z" />
    <glyph glyph-name="u" unicode="u" horiz-adv-x="555" 
d="M277 -3c131 0 238 113 238 251v183c0 34 -26 60 -57 60c-27 0 -62 -26 -62 -60v-183c0 -72 -51 -130 -119 -130c-58 0 -118 58 -118 130v191c0 33 -31 60 -63 60c-31 0 -56 -27 -56 -60v-191c0 -138 107 -251 237 -251z" />
    <glyph glyph-name="v" unicode="v" horiz-adv-x="533" 
d="M267 2c22 0 42 13 52 33l188 368c15 29 3 64 -26 79s-64 3 -79 -26l-135 -263l-135 270c-15 30 -50 41 -79 27c-30 -15 -41 -50 -27 -80l188 -375c10 -20 30 -33 52 -33h1z" />
    <glyph glyph-name="w" unicode="w" horiz-adv-x="757" 
d="M712 437v-253v-6c-4 -101 -91 -183 -198 -183c-53 0 -102 21 -138 54c-36 -33 -84 -54 -138 -54c-109 0 -198 85 -198 189v4v4v243c0 33 27 60 60 60s60 -27 60 -60v-243v-4v-4c0 -38 35 -69 78 -69s78 31 78 69v4v4v243c0 33 27 60 60 60s60 -27 60 -60v-243v-4v-4
c0 -38 35 -69 78 -69s78 31 78 69v253c0 33 27 60 60 60s60 -27 60 -60z" />
    <glyph glyph-name="x" unicode="x" horiz-adv-x="551" 
d="M356 250l143 -148c22 -23 21 -60 -2 -83c-11 -11 -26 -16 -41 -16s-30 6 -42 18l-140 145l-138 -143c-11 -12 -26 -18 -42 -18c-14 0 -29 5 -41 16c-23 23 -24 60 -1 83l141 146l-142 147c-22 24 -22 61 2 83c23 23 60 22 83 -1l138 -144l141 146c22 23 59 24 83 1
c23 -22 24 -59 1 -83z" />
    <glyph glyph-name="y" unicode="y" horiz-adv-x="535" 
d="M431 498c33 0 59 -27 59 -60v-437c0 -139 -111 -253 -246 -253c-72 0 -139 32 -186 88c-21 25 -18 63 6 85s61 19 82 -7c25 -29 61 -46 98 -46c71 0 129 60 129 133v41c-33 -19 -72 -31 -114 -31c-126 0 -229 110 -229 246v179c0 32 26 60 58 60s58 -28 58 -60v-179
c0 -69 51 -126 113 -126c63 0 114 57 114 126v181c0 33 27 60 58 60z" />
    <glyph glyph-name="z" unicode="z" horiz-adv-x="558" 
d="M468 -2c33 0 60 26 60 59s-27 60 -60 60h-228l271 282c17 17 22 42 12 64c-9 22 -31 37 -55 37h-368c-33 0 -60 -27 -60 -60s27 -60 60 -60h228l-271 -281c-17 -18 -22 -43 -12 -65c9 -22 31 -36 55 -36h368z" />
    <glyph glyph-name="zero" unicode="0" horiz-adv-x="597" 
d="M300 0c120 0 225 88 245 205c0 3 1 6 1 10l1 299c0 7 -1 14 -3 20c-10 126 -116 225 -244 225c-69 0 -135 -29 -182 -80c-49 -55 -67 -126 -67 -199c0 -88 -1 -177 -1 -265c0 -3 0 -7 1 -10c19 -117 126 -205 249 -205zM421 514l1 -293c-11 -56 -63 -97 -122 -97
c-60 0 -115 42 -126 97c0 43 4 268 4 293c0 67 55 122 122 122s121 -55 121 -122z" />
    <glyph glyph-name="one" unicode="1" horiz-adv-x="304" 
d="M229 699v-1v-636c0 -34 -28 -62 -62 -62s-62 28 -62 62v516c-22 -9 -46 -14 -68 -14c-34 0 -62 28 -62 62s28 62 62 62c22 0 59 18 81 47c0 0 0 1 1 1c0 1 1 2 2 2c0 1 1 2 2 3l2 2c1 0 1 1 2 2c1 0 1 1 2 1c1 1 2 2 3 2l2 2c1 0 2 1 3 2c1 0 2 0 3 1c0 0 1 1 2 1
c1 1 2 1 3 1c1 1 2 1 3 1c1 1 2 1 3 1s2 1 3 1h3c1 1 2 1 3 1h2h4h1h1h4h3s2 0 3 -1h3c1 0 2 -1 3 -1s2 -1 3 -1s2 -1 2 -1c1 0 2 -1 3 -1s2 -1 3 -1l3 -2c1 0 1 -1 2 -1c1 -1 2 -2 3 -2c0 -1 1 -1 1 -1c1 0 1 -1 1 -1l3 -2c0 -1 1 -1 2 -2l2 -2c1 -1 1 -2 2 -3
c1 0 1 -1 2 -1c0 -1 1 -2 2 -3c0 -1 1 -2 1 -2l2 -3c0 -1 1 -2 1 -3c1 -1 1 -2 1 -3l2 -3s0 -1 1 -2v-3c1 -1 1 -2 1 -3s1 -2 1 -3v-3v-3s1 -2 1 -3z" />
    <glyph glyph-name="two" unicode="2" horiz-adv-x="595" 
d="M489 112c18 -10 31 -30 30 -51c-1 -20 -12 -40 -30 -50c-17 -9 -38 -9 -57 -9h-323c-15 0 -31 0 -45 6c-25 11 -40 42 -32 68c5 15 15 27 25 39c86 103 174 207 263 308c23 26 47 55 51 90c5 43 -24 85 -63 105c-50 26 -116 19 -157 -19c-13 -12 -25 -28 -41 -35
c-22 -10 -49 -5 -66 12c-74 74 81 156 135 170c60 16 126 7 181 -21c47 -24 87 -63 110 -111c22 -45 29 -98 15 -146s-47 -89 -80 -127c-57 -67 -177 -208 -192 -219h218c9 0 18 0 27 -1c11 -1 22 -4 31 -9z" />
    <glyph glyph-name="three" unicode="3" horiz-adv-x="573" 
d="M436 388c40 -41 62 -95 62 -154c0 -60 -22 -116 -62 -159c-31 -33 -88 -73 -179 -73c-83 0 -162 39 -210 103c-20 27 -15 65 12 86c28 20 66 15 87 -12c24 -34 66 -53 111 -53c81 0 118 56 118 108c0 26 -9 50 -26 68c-21 21 -52 32 -92 32c-32 0 -59 25 -61 57v7
c0 34 27 62 61 62c67 0 84 58 84 93c0 24 -7 46 -20 61c-14 16 -36 24 -64 24c-36 0 -70 -19 -83 -48c-14 -31 -51 -44 -82 -30s-44 51 -30 82c34 72 111 119 195 119c81 0 130 -36 156 -66c33 -38 52 -88 52 -142c0 -51 -18 -104 -52 -145c9 -7 17 -13 23 -20z" />
    <glyph glyph-name="four" unicode="4" horiz-adv-x="554" 
d="M420 747c33 0 59 -27 59 -60v-631c0 -33 -26 -59 -59 -59s-60 26 -60 59v265h-274c-19 0 -37 10 -48 25c-11 16 -15 36 -8 54l102 307c11 32 45 49 76 38c31 -10 48 -44 38 -76l-77 -228h191v246c0 33 27 60 60 60z" />
    <glyph glyph-name="five" unicode="5" horiz-adv-x="560" 
d="M272 -1c97 0 156 41 189 76c41 44 64 103 64 167s-22 125 -63 171c-33 37 -92 81 -189 82l-85 1v139h229c34 0 61 28 61 61c0 34 -27 62 -61 62h-291c-34 0 -61 -28 -61 -62v-261c0 -33 26 -63 60 -63c156 -2 147 0 147 0c104 -1 131 -82 131 -130
c-1 -55 -35 -121 -131 -121c-45 0 -86 20 -111 53c-20 27 -59 32 -86 12s-32 -59 -12 -86c48 -63 126 -101 209 -101z" />
    <glyph glyph-name="six" unicode="6" horiz-adv-x="578" 
d="M460 407c45 -46 69 -106 68 -170s-27 -124 -73 -168c-44 -44 -104 -68 -166 -68h-3c-132 2 -238 111 -236 243c0 28 3 64 15 90l175 383c14 30 49 43 80 29c30 -13 43 -49 29 -79l-86 -189c10 1 19 1 29 1c64 -1 124 -26 168 -72zM407 239c1 31 -11 61 -33 84
c-22 22 -52 35 -84 36h-1c-31 0 -60 -12 -83 -34c-22 -22 -35 -51 -36 -83c0 -65 52 -119 117 -120c32 0 62 11 84 33c23 22 36 52 36 84z" />
    <glyph glyph-name="seven" unicode="7" horiz-adv-x="537" 
d="M123 -2c22 0 44 12 55 33l327 636c10 19 9 42 -2 60c-11 19 -31 30 -52 30h-365c-34 0 -61 -28 -61 -62s27 -61 61 -61h264l-281 -547c-16 -30 -4 -67 26 -83c9 -4 19 -6 28 -6z" />
    <glyph glyph-name="eight" unicode="8" horiz-adv-x="578" 
d="M436 428c56 -44 92 -113 92 -189c0 -132 -107 -239 -239 -239s-239 107 -239 239c0 76 36 144 92 188c-32 36 -52 82 -52 133c0 110 89 199 199 199c109 0 198 -89 198 -199c0 -51 -20 -97 -51 -132zM289 639c-44 0 -79 -35 -79 -79c0 -43 35 -79 79 -79
c43 0 78 36 78 79c0 44 -35 79 -78 79zM289 119c66 0 119 54 119 120s-53 119 -119 119s-120 -53 -120 -119s54 -120 120 -120z" />
    <glyph glyph-name="nine" unicode="9" horiz-adv-x="559" 
d="M509 518c0 -55 -19 -102 -41 -151c-13 -31 -26 -61 -40 -91l-105 -239c-10 -23 -32 -36 -56 -36c-8 0 -16 2 -24 5c-31 14 -45 50 -31 80l84 192c-9 -1 -19 -1 -29 -1c-133 0 -242 108 -242 241s109 242 242 242s242 -109 242 -242zM147 518c0 -66 54 -119 120 -119
s120 53 120 119s-54 120 -120 120s-120 -54 -120 -120z" />
    <glyph glyph-name="colon" unicode=":" horiz-adv-x="234" 
d="M123 371c33 0 61 28 61 64s-28 66 -61 66h-8c-34 0 -61 -30 -61 -66s27 -64 61 -64h8zM119 -1c33 0 61 28 61 64s-28 66 -61 66h-8c-34 0 -61 -30 -61 -66s27 -64 61 -64h8z" />
    <glyph glyph-name="comma" unicode="," 
d="M120 -120c33 0 60 27 60 60v134c0 33 -27 60 -60 60s-60 -27 -60 -60v-134c0 -33 27 -60 60 -60z" />
    <glyph glyph-name="exclam" unicode="!" horiz-adv-x="238" 
d="M115 194c34 0 61 27 61 60v444c0 34 -27 61 -61 61c-33 0 -60 -27 -60 -61v-444c0 -33 27 -60 60 -60zM122 0c34 0 61 27 61 61c0 33 -27 60 -61 60h-7c-33 0 -60 -27 -60 -60c0 -34 27 -61 60 -61h7z" />
    <glyph glyph-name="period" unicode="." 
d="M119 -1c33 0 61 28 61 64s-28 66 -61 66h-8c-34 0 -61 -30 -61 -66s27 -64 61 -64h8z" />
    <glyph glyph-name="question" unicode="?" horiz-adv-x="455" 
d="M210 750c121 0 220 -98 220 -220c0 -103 -71 -189 -166 -213v-63c0 -33 -26 -60 -60 -60c-32 0 -59 27 -59 60v115c0 33 27 60 59 60h3h3c56 0 101 45 101 101s-45 101 -101 101c-31 0 -60 -14 -79 -37c-21 -26 -58 -30 -84 -9c-25 21 -29 58 -8 83c42 52 105 82 171 82z
M208 124c33 0 59 -27 59 -59c0 -34 -26 -60 -59 -60h-7c-33 0 -59 26 -59 60c0 32 26 59 59 59h7z" />
    <glyph glyph-name="quotedbl" unicode="&#x22;" horiz-adv-x="403" 
d="M293 455c33 0 60 27 60 60v134c0 33 -27 60 -60 60s-60 -27 -60 -60v-134c0 -33 27 -60 60 -60zM110 454c33 0 60 27 60 60v134c0 33 -27 60 -60 60s-60 -27 -60 -60v-134c0 -33 27 -60 60 -60z" />
    <glyph glyph-name="quotesingle" unicode="'" horiz-adv-x="210" 
d="M105 454c33 0 60 27 60 60v134c0 33 -27 60 -60 60s-60 -27 -60 -60v-134c0 -33 27 -60 60 -60z" />
    <glyph glyph-name="semicolon" unicode=";" 
d="M119 371c33 0 61 28 61 64s-28 66 -61 66h-8c-34 0 -61 -30 -61 -66s27 -64 61 -64h8zM116 -120c33 0 60 27 60 60v134c0 33 -27 60 -60 60s-60 -27 -60 -60v-134c0 -33 27 -60 60 -60z" />
    <glyph glyph-name="slash" unicode="/" horiz-adv-x="493" 
d="M110 -3c23 0 45 14 55 37l273 630c13 31 -1 66 -31 79c-31 13 -66 -1 -79 -31l-273 -631c-13 -30 1 -65 31 -79c8 -3 16 -5 24 -5z" />
    <glyph glyph-name="parenleft" unicode="(" horiz-adv-x="307" 
d="M197 -4c11 0 22 3 32 10c28 17 36 54 19 82c-171 274 -7 556 0 568c17 28 8 65 -20 82s-65 8 -82 -20c-9 -14 -210 -355 0 -693c11 -19 31 -29 51 -29z" />
    <glyph glyph-name="parenright" unicode=")" horiz-adv-x="314" 
d="M107 753c-10 1 -21 -3 -30 -11c-28 -17 -36 -54 -18 -82c179 -269 22 -556 16 -568c-16 -29 -6 -65 23 -81c28 -16 65 -7 81 22c8 14 200 361 -19 693c-11 19 -32 29 -53 27z" />
    <glyph glyph-name="hyphen" unicode="-" horiz-adv-x="581" 
d="M465 181c36 0 65 29 66 65c-1 36 -30 65 -66 65h-350c-36 0 -65 -29 -65 -65s29 -65 65 -65h350z" />
    <glyph glyph-name="space" unicode=" " horiz-adv-x="275" 
 />
    <glyph glyph-name="ampersand" unicode="&#x26;" horiz-adv-x="625" 
d="M561 467c20 -23 18 -58 -5 -78l-46 -40c27 -34 40 -86 35 -141c-9 -82 -63 -179 -190 -206c-17 -4 -35 -6 -52 -6c-58 0 -116 22 -163 63c-62 54 -95 135 -89 216c7 78 44 141 101 181c-7 9 -14 18 -19 29c-46 89 -10 198 79 244c43 22 92 26 138 11s83 -47 105 -90
c14 -27 3 -60 -24 -74s-60 -3 -73 24c-18 35 -61 49 -96 31s-49 -61 -31 -96c7 -15 29 -31 51 -38h1c22 -5 39 -23 42 -46c4 -31 -17 -58 -47 -62c-33 -4 -109 -24 -117 -123c-4 -46 15 -93 51 -124c34 -30 78 -42 119 -33c69 15 93 58 101 91c9 34 2 63 -5 76l-69 -60
c-10 -10 -23 -14 -36 -14c-15 0 -30 6 -41 19c-20 22 -18 57 5 77l198 174c22 20 57 17 77 -5z" />
    </font>
</defs>
</svg>
